#include "pitches.h"

int piezo = 9;

int melody[] = {
NOTE_C5,NOTE_D5,NOTE_E5,NOTE_C5,
NOTE_E5,NOTE_C5,NOTE_E5,
NOTE_D5,NOTE_E5,NOTE_F5,NOTE_F5,NOTE_E5,NOTE_D5,NOTE_F5,
NOTE_E5,NOTE_F5,NOTE_G5,NOTE_E5,
NOTE_G5,NOTE_E5,NOTE_G5,
NOTE_F5,NOTE_G5,NOTE_A5,NOTE_A5,NOTE_G5,NOTE_F5,NOTE_A5,

NOTE_G5,NOTE_C5,NOTE_D5,NOTE_E5,NOTE_F5,NOTE_G5,NOTE_A5,
NOTE_A5,NOTE_D5,NOTE_E5,NOTE_F5,NOTE_G5,NOTE_A5,NOTE_B5,
NOTE_B5,NOTE_E5,NOTE_F5,NOTE_G5,NOTE_A5,NOTE_B5,
NOTE_C5,NOTE_C5,NOTE_B5,
NOTE_A5,NOTE_F5,NOTE_B5,NOTE_G5,
NOTE_C5,NOTE_G5,NOTE_E5,NOTE_D5,
NOTE_C5,NOTE_D5,NOTE_E5,NOTE_F5,NOTE_G5,NOTE_A5,NOTE_B5,
NOTE_C5,NOTE_G5,NOTE_C5,};

int tempo[] = {
1000, 250,1000,250,300,300,2500,
1500, 250,250,250,250,250,2500,
1000, 250,1000,250,300,300,2500,
1500, 250,250,250,250,250,2500,

1500, 250,250,250,250,250,2500,
1500, 250,250,250,250,250,2500,
1500, 250,250,250,250,250,
1500, 250,250,250,
1500, 250,250,250,2500,
1500, 250,2500,2500,2500,
1500,1500,1500,1500,1500,1500,1500};

void setup() {
  pinMode(piezo, OUTPUT);
}

void loop() {
  for(int k = 0; k < 73; k++){
      tone(piezo, melody[k], tempo[k]);
      delay(500);
    }

}
